<?xml version="1.0" encoding="iso-8859-1"?>
<!-- Generator: Adobe Illustrator 19.0.0, SVG Export Plug-In . SVG Version: 6.00 Build 0)  -->
<svg version="1.1" id="Layer_1" xmlns="http://www.w3.org/2000/svg" xmlns:xlink="http://www.w3.org/1999/xlink" x="0px" y="0px"
	 viewBox="0 0 496.2 496.2" style="enable-background:new 0 0 496.2 496.2;" xml:space="preserve">
<path style="fill:#32BEA6;" d="M496.2,248.1C496.2,111.1,385.1,0,248.1,0S0,111.1,0,248.1s111.1,248.1,248.1,248.1
	S496.2,385.1,496.2,248.1z"/>
<path style="fill:#3A3A38;" d="M391,376.6c0,6.4-5.2,11.6-11.6,11.6H113c-6.4,0-11.6-5.2-11.6-11.6V186.1H391L391,376.6L391,376.6z"
	/>
<g>
	<path style="fill:#D1D0CF;" d="M277.4,308.5c0,0-6.3,40,21.8,50.9c6.8,2.7,18.6,3.5,29-1.1v-6.1c0,0-13.6,5.3-25.3,0.7
		c-12.3-4.9-21-17.2-18.2-46.2L277.4,308.5z"/>
	<circle style="fill:#D1D0CF;" cx="244.6" cy="305.2" r="56.6"/>
</g>
<circle style="fill:#A5A4A4;" cx="244.6" cy="305.2" r="12.4"/>
<circle style="fill:#D3D3D3;" cx="244.6" cy="305.2" r="9.2"/>
<g>
	<circle style="fill:#A09F9F;" cx="244.6" cy="271.7" r="13.3"/>
	<circle style="fill:#A09F9F;" cx="223.3" cy="332.3" r="13.3"/>
	<circle style="fill:#A09F9F;" cx="264.7" cy="332.3" r="13.3"/>
	<circle style="fill:#A09F9F;" cx="212.4" cy="295.8" r="13.3"/>
	<circle style="fill:#A09F9F;" cx="276.9" cy="295.8" r="13.3"/>
</g>
<g>
	<path style="fill:#3A3A38;" d="M244.6,285c7.4,0,13.3-6,13.3-13.3c0-1.6-0.3-3.1-0.8-4.5c-3.9-1.3-8.2-2-12.5-2
		c-4.4,0-8.6,0.7-12.5,2c-0.5,1.4-0.8,2.9-0.8,4.5C231.3,279.1,237.3,285,244.6,285z"/>
	<path style="fill:#3A3A38;" d="M236.6,332.3c0-7.4-6-13.3-13.3-13.3c-5.5,0-10.2,3.3-12.2,8.1c4.8,7.3,11.8,13,20.2,15.9
		C234.5,340.5,236.6,336.6,236.6,332.3z"/>
	<path style="fill:#3A3A38;" d="M264.7,318.9c-7.4,0-13.3,6-13.3,13.3c0,4.6,2.3,8.6,5.8,11c8.3-2.7,15.3-8.1,20.2-15
		C275.7,322.8,270.7,318.9,264.7,318.9z"/>
	<path style="fill:#3A3A38;" d="M225.7,295.8c0-7.4-6-13.3-13.3-13.3c-0.2,0-0.5,0-0.7,0c-4.5,6.5-7.1,14.3-7.1,22.7
		c0,0.5,0,0.9,0,1.4c2.2,1.6,4.9,2.5,7.7,2.5C219.7,309.1,225.7,303.1,225.7,295.8z"/>
	<path style="fill:#3A3A38;" d="M263.6,295.8c0,7.4,6,13.3,13.3,13.3c2.9,0,5.6-0.9,7.7-2.5c0-0.5,0-0.9,0-1.4
		c0-8.4-2.6-16.3-7.1-22.7c-0.2,0-0.5,0-0.7,0C269.5,282.5,263.6,288.4,263.6,295.8z"/>
</g>
<g>
	<polygon style="fill:#FFFFFF;" points="181,225.2 152.9,225.2 182.6,186.1 210.7,186.1 	"/>
	<polygon style="fill:#FFFFFF;" points="236.8,225.2 208.7,225.2 238.4,186.1 266.5,186.1 	"/>
	<polygon style="fill:#FFFFFF;" points="291.7,225.2 263.6,225.2 293.3,186.1 321.4,186.1 	"/>
	<polygon style="fill:#FFFFFF;" points="347,225.2 318.9,225.2 348.6,186.1 376.7,186.1 	"/>
</g>
<polygon style="fill:#3A3A38;" points="151.7,136.8 123.8,140.1 158,175.2 185.9,171.8 "/>
<g>
	<polygon style="fill:#FFFFFF;" points="124.2,140.1 104.7,142.4 130.5,178.5 158.3,175.2 	"/>
	<polygon style="fill:#FFFFFF;" points="179.2,133.5 151.3,136.8 185.4,171.9 213.3,168.5 	"/>
</g>
<polygon style="fill:#3A3A38;" points="206.7,130.2 178.8,133.5 212.9,168.6 240.8,165.2 "/>
<polygon style="fill:#FFFFFF;" points="234.5,126.8 206.7,130.2 240.8,165.2 268.7,161.9 "/>
<polygon style="fill:#3A3A38;" points="262,123.5 234.1,126.8 268.3,161.9 296.1,158.5 "/>
<polygon style="fill:#FFFFFF;" points="289.1,120.2 261.2,123.6 295.3,158.6 323.2,155.3 "/>
<polygon style="fill:#3A3A38;" points="316.5,116.9 288.7,120.3 322.8,155.3 350.7,152 "/>
<polygon style="fill:#FFFFFF;" points="344,113.6 316.1,117 350.3,152 378.2,148.7 "/>
<g>
	<polygon style="fill:#3A3A38;" points="384.1,108.7 344.4,113.6 378.6,148.6 388.7,147.4 	"/>
	<polygon style="fill:#3A3A38;" points="198.6,228.5 101.4,228.5 101.4,142.8 115.5,141.1 	"/>
</g>
<g>
	<circle style="fill:#B5B4A0;" cx="115" cy="163.4" r="5.7"/>
	<circle style="fill:#B5B4A0;" cx="115" cy="208.1" r="5.7"/>
	<circle style="fill:#B5B4A0;" cx="159.8" cy="208.1" r="5.7"/>
</g>
<g>
</g>
<g>
</g>
<g>
</g>
<g>
</g>
<g>
</g>
<g>
</g>
<g>
</g>
<g>
</g>
<g>
</g>
<g>
</g>
<g>
</g>
<g>
</g>
<g>
</g>
<g>
</g>
<g>
</g>
</svg>
